<?xml version="1.0" encoding="utf-8"?>
<!-- Generator: Adobe Illustrator 24.1.1, SVG Export Plug-In . SVG Version: 6.00 Build 0)  -->
<svg version="1.1" id="Layer_1" xmlns="http://www.w3.org/2000/svg" xmlns:xlink="http://www.w3.org/1999/xlink" x="0px" y="0px"
	 viewBox="0 0 84.2 55.1" style="enable-background:new 0 0 84.2 55.1;" xml:space="preserve">
<style type="text/css">
	.st0{fill:#23215B;}
	.st1{fill:#ED2A7C;}
	.st2{fill:#51CAEF;}
	.st3{fill:#E058A8;}
	.st4{fill:#E3E717;}
	.st5{fill:#FBB011;}
	.st6{fill:#F32D2C;}
</style>
<g>
	<g>
		<g>
			<path class="st0" d="M84.2,16.3C84,6.2,74.3-2.6,61.7,0.7C49.8,3.8,47.6,16.2,36.7,13.5C21.3,9.6,12.7,8,5.1,15.1
				c-8.9,8.3-8.5,32.9,20.5,38.1C43,56.3,62.8,51.3,72,43.5C80.9,35.9,84.5,24.7,84.2,16.3z"/>
		</g>
		<g>
			<g>
				<path class="st0" d="M74.1,47.3c-3.3,2-6.6,3.5-10,4.3l0,0c-0.9,0.2-1.5,1.2-1.3,2.1c0.2,0.9,1.2,1.5,2.1,1.3l0,0
					c3.7-0.9,7.4-2.5,11-4.7l0,0c0.8-0.5,1.1-1.6,0.6-2.4C76.1,47,75,46.8,74.1,47.3L74.1,47.3z"/>
			</g>
			<g>
				<path class="st0" d="M79,43.7C79,43.7,79,43.7,79,43.7c0,0-0.3,0.2-0.7,0.6l0,0c-0.8,0.6-0.9,1.7-0.2,2.5
					c0.6,0.8,1.7,0.9,2.5,0.2l0,0c0.6-0.5,0.9-0.7,0.9-0.8l0,0c0.7-0.7,0.7-1.8,0.1-2.5C80.9,43.1,79.7,43,79,43.7L79,43.7z"/>
			</g>
		</g>
		<g>
			<g>
				<path class="st0" d="M44.5,6.9c-0.2,0.5-1.4,2.6-3.7,3.1c-3.8,0.7-7.5-1.4-7.4-3.3c0.1-1.6,1.9-3.8,4.6-4.4
					C40.6,1.7,45.3,4,44.5,6.9z"/>
			</g>
		</g>
	</g>
</g>
<g>
	<path class="st1" d="M7.7,15h0.1l-0.8,5.1c0,0,0,0,0,0C7,21.2,7,21.8,7,21.9L7,22c0,0.1-0.1,0.2-0.1,0.3c0,0,0,0,0,0l0,0.2v0.1
		c-0.1,1.2-0.2,2.3-0.2,3.5c0,0.1,0,0.2,0,0.3c0,0.2,0,0.7,0,1.5l0,0.1c0,0.1,0.1,0.2,0.1,0.3c0.2,0,0.4,0,0.4-0.1
		c0.1,0,0.2,0,0.2,0c0.6-0.2,1.1-0.5,1.3-0.8c0.2-0.3,0.4-0.8,0.6-1.6c0.1-0.6,0.1-1,0.1-1c0,0,0,0,0,0c0,0,0-0.1,0-0.1
		c0-0.5,0-0.7-0.1-0.7c0,0,0,0,0,0c0,0,0-0.1,0-0.1c0-0.3,0-0.5,0-0.6c0,0,0-0.1,0-0.1l0-0.2v0l-0.2-2h0c0-0.1-0.1-0.5-0.2-1.2
		c0,0-0.1-0.1-0.1-0.4l0-0.1l-0.2-1V18c0.1-0.2,0.2-0.3,0.4-0.3l0.1,0c0,0,0.3-0.1,0.7-0.1l0.1,0c0.1-0.1,0.4-0.2,1-0.3v0
		c0.2-0.1,0.7-0.3,1.5-0.5c0.2-0.1,0.8-0.4,1.7-0.7h0.1c0,0,0.1,0,0.1,0.1v0.1l-0.1,0.2c0,0,0,0.1,0,0.1h0c0,0,0,0,0,0
		c0,0.1,0,0.2,0,0.3l0,0.1c0,0,0,0.1,0,0.1c0,0,0,0.1,0,0.1h0l0,0.1c0,0.3,0,1.4-0.1,3.3c0,0.1,0,0.2,0.1,0.2l-0.1,1.6l0,0.1l0,0.2
		V23c0,0.1,0,0.1,0,0.1l0,0.2V24c0,0.1,0,0.1,0,0.1c0,0,0,0,0,0c0,0.7-0.2,1.5-0.4,2.6l-0.5,1.1c-0.3,0.5-0.5,0.8-0.7,1
		c0,0.3-0.5,0.9-1.6,1.7c-0.7,0.4-1,0.6-1,0.6v0.1c0.3,0.3,0.8,0.8,1.4,1.5c0.2,0.3,0.3,0.5,0.4,0.6c0.3,0.5,0.5,0.7,0.5,0.8
		c0.1,0.1,0.4,0.6,0.7,1.5c0.2,0.5,0.4,0.9,0.5,1.3c0.2,0.4,0.3,0.8,0.5,1.5h0c0.1,0.1,0.2,0.6,0.3,1.6c0,0.1,0,0.1-0.1,0.1
		c0.1,0.2,0.2,0.8,0.3,1.8V42c0,0.5,0,0.7-0.1,0.7l0,0.1c0,0,0,0,0,0l0.1,0.7c0,0,0,0.1,0,0.1c0,0,0.1,0,0.1,0.1
		c0,0.1-0.1,0.2-0.1,0.3v0.3c0,0,0,0,0,0c0,0,0,0.1,0,0.1l-0.1,0.8c0,0,0,0.1,0,0.1h0l0,0.1v0.1c0,0.2-0.1,0.4-0.4,0.4h-0.3
		c-0.6,0-0.9,0-0.9,0.1l-0.2,0c0,0-0.1,0-0.3,0.1c0,0-0.1,0-0.1,0l-1.3,0.2v0c-0.4,0.1-1,0.3-1.7,0.6h0c0,0-0.1-0.1-0.2-0.3v-0.1
		c0-0.1,0.1-0.6,0.2-1.4l0-0.1c0-0.1,0.1-0.1,0.1-0.2v0c0-0.1,0-0.1,0-0.1l0-0.2v-0.3c0,0,0,0,0,0c0,0,0,0,0,0
		c0.1-1.2,0.1-1.9,0.1-2.1c0-0.2-0.1-0.4-0.1-0.7v0l0-0.1c0,0,0.1,0,0.1-0.1c-0.2-2-0.5-3.3-0.8-3.9c-0.5-1.1-0.9-2.1-1.4-3
		c-0.6-0.8-1-1.2-1.2-1.4h0c0,0-0.1,0.1-0.1,0.3c0,0.2,0.1,0.4,0.1,0.4c0,0,0,0,0,0l0,0.1c0,0.3,0,0.6,0,0.7c0,0.2,0.1,0.3,0.1,0.4
		c0,0.2,0,0.3,0,0.4l0,0.1l0,0.1c0,0.2,0,0.3,0,0.3l0,0.2c0,0.4,0,0.5,0.1,0.5l0,0.2v0.7c0,0,0,0.1,0,0.1c0,0,0,0.1,0,0.1v0.2
		c0,0.2,0,0.5,0,0.8c0,0,0,0.1,0,0.1c0,0,0,0.1,0,0.2v0c0,0,0,0,0,0c0.1,0.2,0.1,0.5,0.1,0.9v0.2c0,0,0,0,0,0
		c0.1,0.2,0.1,0.9,0.1,2.1c0,0,0,0.1,0,0.1l0,0.1l0.2,1.2c0,0,0,0.1,0,0.1v0.1l0,0.4c0,0-0.1,0.1-0.3,0.4H6.1c0,0,0,0,0,0
		c-0.4,0.2-0.8,0.3-1.1,0.4c-0.1,0-0.2,0.1-0.2,0.1l-0.2,0l-3,0.6c-0.2,0-0.4,0.1-0.4,0.1c0-0.1-0.1-0.2-0.1-0.2
		c0.1-0.3,0.1-0.6,0.2-1.1l0-0.2c0-0.1,0-0.1,0.1-0.1c0,0,0,0,0,0l0.2-1.2v-0.3c0,0,0-0.1,0-0.1c0,0,0,0,0,0l0.1-1.1
		c0-0.1-0.1-0.1-0.1-0.2c0-1,0.1-1.7,0.1-2c0-0.1,0-0.2,0.1-0.3v-0.1l-0.1-0.6c0.2-2.3,0.2-3.6,0.2-3.7c0,0,0-0.1,0-0.2
		c0-0.2,0-0.3,0.1-0.3c0-0.1-0.1-0.2-0.1-0.2l0.1-0.8c0,0,0,0,0,0l0-0.2v-0.2c0,0,0-0.1,0-0.1c0.1-0.4,0.1-1.2,0.1-2.5v-0.2
		c0-0.1,0-0.2,0-0.3c0-0.4-0.1-0.7-0.1-0.9l0-0.1L1.8,28l0-0.2c0,0,0,0,0,0l0-0.2v-0.2l0-0.2h0l0-0.1V27c0-0.3,0-0.7-0.1-1.4h0
		c0,0,0-0.1,0-0.1c0-0.2,0-0.6-0.1-1.1c0,0,0-0.1,0-0.1c0,0,0-0.1,0-0.3c0,0,0,0,0,0l-0.1-1.6c0,0,0-0.1,0-0.1l0-0.2l0-0.1l-0.1-0.4
		c0,0,0-0.1,0-0.1c0-0.1,0-0.2,0-0.3v-0.2c0,0,0-0.1,0-0.1c-0.1-0.5-0.2-1.3-0.2-2.4l0-0.2c0-0.5-0.1-0.9-0.2-1.2
		c0-0.1,0.1-0.2,0.1-0.4C1,16.1,1,15.9,1,15.8h0l0-0.1c0,0,0,0,0,0l0-0.2v-0.1c0,0,0-0.1,0.1-0.1h0.1c0,0,0.1,0.1,0.2,0.2l0.1,0
		c0.5,0.2,0.8,0.2,0.9,0.2l0.1,0l0.1,0c0,0,0,0,0,0l0.2,0h0l0.2,0v0c0,0,0,0,0,0l0.3,0h0.1l0.2,0v0c0.1,0,0.3-0.1,0.5-0.1h0
		c0,0,0.1,0,0.1-0.1l0.4,0h0c0.5-0.2,1-0.2,1.4-0.2H6C6.7,15.3,7.3,15.1,7.7,15z"/>
	<path class="st2" d="M21.1,24.2h0.2v0c-0.1,0.2-0.1,0.4-0.2,0.6v0.2c0,0.2-0.1,0.5-0.2,0.7c0,0.1,0,0.4,0,1c-0.1,0-0.1,0.4-0.2,1.3
		c0,0,0,0.1,0,0.1c-0.1,0-0.2,0.5-0.3,1.6v0.1c0,0,0,0,0,0l0,0.1c0,0.4-0.1,0.6-0.1,0.7c0,0,0,0.1,0,0.1c0,0.3,0,0.4-0.1,0.4l0,0.2
		v0.1c0,0,0,0.1,0,0.1c0,0,0,0,0,0c0,0,0,0.1-0.1,0.3c0,0,0,0.1,0,0.1c-0.1,0-0.1,0.4-0.2,1.2l0,0.2c0,0.1-0.1,0.6-0.1,1.5l0,0.1
		c0,0.1-0.1,0.3-0.1,0.5l0,0.2v0.3c0,0,0,0.1,0,0.1c0,0,0,0.1,0,0.1v0.1l0,0.2c0,0,0,0,0,0l0,0.2v0.2c0,0.2,0,0.4,0,0.6l0,0.1
		c0,0.1,0,0.2,0,0.3v0.5c0,0.1,0,0.1,0,0.2l0,0.2v0.5c0,0.2,0,0.5,0,0.8c0.1,0.5,0.1,0.9,0.2,1.1h0l0,0.1v0.1c0,0.1,0,0.6,0.1,1.5
		l0,0.1c0.3,1.3,0.4,1.9,0.4,1.9c0.1,0.1,0.1,0.4,0.2,0.9h-0.4c-0.1,0-0.1-0.1-0.1-0.1h-0.2c-0.2,0-0.2,0-0.2-0.1l-0.1,0h-1.4
		l-0.1,0.1h-0.7c-0.2,0.1-0.6,0.1-1.2,0.1c-0.1,0-0.3,0.1-0.5,0.1h-0.2c0,0-0.1,0-0.1-0.1c0,0,0,0,0,0l0-0.1
		c0.2-0.7,0.3-1.5,0.4-2.5c0,0,0,0,0.1-0.1c0,0,0,0,0,0c0-0.3,0.1-0.7,0.1-1.3v-0.1c0-0.1,0-0.2,0-0.3c0-0.1,0-0.2,0-0.3
		c0-0.6,0-0.9,0.1-0.9l0-0.2v-1.4l0-0.2c0,0,0,0,0,0c0,0,0-0.1,0-0.1c0-0.5,0-0.8,0-1.1v-0.4c0,0,0-0.1,0-0.1c0,0,0,0,0,0l0-0.2
		v-0.7c0,0,0-0.1,0-0.1c0,0,0,0,0,0l0-0.2l0-0.1h0l-0.1-0.4c0,0,0,0,0,0c0-0.2-0.1-0.4-0.1-0.7v-0.4c0,0,0,0,0,0l0-0.1v-0.1
		c0,0,0,0,0,0c0-0.1,0-0.1-0.1-0.1c0,0,0-0.1,0-0.2c0-0.9-0.1-1.3-0.1-1.5c0,0-0.1-0.4-0.1-1c0,0,0-0.1-0.1-0.3c0,0,0,0,0,0
		l-0.1-0.6c0,0,0-0.1,0-0.1l-0.4-3.2c0,0-0.1-0.4-0.2-1l0-0.1l-0.1-0.4v-0.2c0-0.1,0.1-0.1,0.2-0.1l0.1,0l0.1,0
		c0.2,0.1,0.3,0.1,0.3,0.1H16c0.1,0,0.2,0,0.3,0c0.1,0,0.2,0,0.2,0c0,0,0,0,0,0l0.2,0h0.4c0,0,0.1,0,0.1,0c0,0,0.1,0,0.1,0h0l0.2,0
		c0,0,0.1,0,0.1,0c0.1,0,0.1-0.1,0.2-0.1c0.1,0,0.1,0,0.1,0.1c0.1,0,0.2,0,0.3-0.1l0.2,0l0.4-0.1l0.1,0.1c0,0,0-0.1,0.1-0.1l0.2,0
		c0.5,0,0.8-0.1,0.8-0.2l0.2,0h0.1c0,0,0.2-0.1,0.5-0.1v0L21.1,24.2z M18.5,15c0.7,0,1.1,0.1,1.3,0.3c0.4,0.2,0.7,0.7,0.9,1.4
		c0.1,0.5,0.2,1.2,0.3,1.9c0,0.1,0,0.1,0,0.2c0,0.3,0,0.5,0,0.5c0,0.1,0,0.1-0.1,0.1l0,0.1v0.1l0,0.2l0,0.1c0,0.7-0.2,1.3-0.5,2
		c-0.2,0.3-0.4,0.6-0.7,0.7c-0.4,0.2-0.8,0.3-1.1,0.3h-0.5c-0.9,0-1.6-0.4-2.3-1.1c-0.1-0.2-0.2-0.5-0.3-0.9c0,0,0,0,0,0v-0.3
		c0-0.1,0-0.1,0-0.1c0,0,0,0,0-0.1c0-0.6,0-1,0-1.4c0.1-1.4,0.2-2.2,0.4-2.4c0.2-0.5,0.5-0.8,1.1-1.1C17.2,15.2,17.7,15.1,18.5,15z"
		/>
	<path class="st3" d="M33.7,14.4l0.2,0.2c-0.1,0.4-0.3,1.6-0.5,3.6c0,0-0.1,0.2-0.1,0.5l0,0.1v0.3l0,0.2l0.1,0
		c-0.1,0.1-0.1,0.2-0.1,0.3l0,0.2l0,0.1c0,0,0,0.1,0,0.1c0,0.1,0,0.2,0,0.3c0,0,0,0.1,0,0.1c-0.1,0.1-0.1,0.5-0.1,1.4l0,0.1l0,0.1
		c0,0.1,0,0.2,0,0.2c0,0,0,0,0,0c0,0.3,0.1,0.4,0.1,0.4l0,0.1l0,0.1c0,0.1-0.1,0.2-0.1,0.4c0,0,0,0,0,0l0,0.2l0,0.2l-0.1,0l0,0.1
		v0.5c0,0,0,0,0,0c0,0,0,0.1,0,0.1c0,0.1,0,0.2-0.1,0.2c0,0,0,0,0,0c0,0.7-0.1,1-0.1,1l0,0.1c0,0.3,0,0.4-0.1,0.4c0,0,0,0,0,0
		c-0.1,0.9-0.2,1.8-0.2,2.7h0l0,0.1c0,0,0,0,0,0l0,0.2v0.7c0,0,0,0,0,0l0,0.1v0.3c0,0.1,0,0.1,0,0.2c0,0.1,0,0.4-0.1,0.8
		c0,0.4,0,0.6,0.1,0.6l0,0.2v1c0,0.1,0,0.2,0,0.3c0,0,0,0.1,0,0.2l0,0.1h0l0,0.1v0.4c0,0.2,0,0.4-0.1,0.7l0.2,2.3v0.1l0,0.2h0
		c0.2,1.8,0.3,2.8,0.3,3c0,0,0,0.1,0,0.1c0,0.1,0,0.2,0,0.3h0l0,0.1v0.8c0,0.2,0.1,0.8,0.2,1.9c0,0.1,0,0.2,0,0.2
		c0,0,0.1,0.3,0.1,0.8c0,0,0,0,0,0l-0.7-0.2l-0.1,0c0,0-0.1,0-0.1,0l-0.1,0l-0.6-0.1l-0.1,0c0,0-0.1,0-0.1,0c0,0-0.1,0-0.1,0v0
		c0,0,0,0,0,0l-0.2,0h0c0,0-0.1,0-0.1,0l-0.1,0c0,0-0.1,0-0.1,0s0,0,0,0c-0.7,0.1-1.2,0.1-1.4,0.2l-0.1,0c-0.1,0-0.2,0.1-0.3,0.1h0
		L29,43.7c0,0,0,0,0,0c-0.2-0.8-0.3-1.5-0.3-1.9c0,0,0,0,0,0c0-0.3-0.1-0.5-0.1-0.6l0-0.1c-0.3-2-0.7-3.6-1.1-4.7
		c0-0.1-0.1-0.3-0.3-0.8l0-0.1l-0.2-0.2c-0.1,0-0.1,0.4-0.1,1.1c0,0,0,0.1,0,0.2h0c0,0.2,0,0.3,0.1,0.3l0,0.2V37c0,0.1,0,0.3,0,0.6
		h0c0,0,0,0,0,0l0,0.2c0,0,0,0.1,0,0.1c0,0,0,0.1,0,0.1c0,0,0,0.1,0,0.1l0,0.2v0.4c0,0.1,0,0.3,0,0.4c0,0.2,0,0.3,0.1,0.4
		c0,0.1,0,0.2,0,0.3c0,0.1,0,0.4,0,0.8h0c0,0.1,0,0.1,0.1,0.1c0,0.2-0.1,0.5-0.1,0.9c0,0.2,0,0.3,0,0.3h0l0,0.1v0.4c0,0,0,0,0,0
		l0,0.1c0,0.2,0,0.3-0.1,0.3l0,0.3v0.4c0,0.1,0,0.3,0,0.5c0,0,0,0.1,0,0.1l0.1,0.5h0c0,0,0,0.1,0,0.1c0,0.2,0,0.5,0.1,0.7h0l0.1,0.6
		c0,0,0,0.1,0,0.1c0,0.1,0,0.1,0.1,0.3v0.2c0,0,0,0.1-0.1,0.1H27c-0.2-0.1-0.6-0.3-1.3-0.4c0,0-0.1,0-0.1,0l-0.4-0.1c0,0,0,0,0,0
		c-0.3,0-0.5-0.1-0.5-0.1c-0.2,0-0.3,0-0.5,0h-0.1c0,0-0.1,0-0.1,0c0,0-0.1,0-0.1,0l-0.1,0l-0.2,0c-0.1,0-0.1,0.1-0.2,0.1h-0.8
		c-0.3,0.1-0.6,0.2-0.7,0.2h-0.1c0,0-0.1,0-0.1-0.1c0,0,0.1-0.1,0.1-0.2c0,0,0,0,0,0c0.1-0.7,0.2-1.2,0.2-1.4l0-0.1v-0.1
		c0,0,0,0,0,0l0-0.1c0-0.1,0-0.2,0.1-0.3c0,0,0,0,0,0c0-0.4,0.1-0.6,0.1-0.6c0,0,0,0,0,0c0,0,0-0.1,0-0.2c0-0.2,0-0.4-0.1-0.4
		c0-0.1,0.1-0.1,0.1-0.2v0c0-0.1,0-0.1,0-0.1l0-0.2v-0.2c0-0.3,0-0.5,0-0.7c0-0.1,0-0.3,0-0.5c0,0,0-0.1,0-0.1l0-0.2v-0.3
		c0-0.1,0-0.2,0-0.4c0-0.2,0.1-0.3,0.1-0.3l0-0.2v-1.2c0,0,0-0.1,0-0.1c0,0,0-0.1,0-0.1v0c0,0,0,0,0,0l0-0.1v0c0,0,0-0.1,0-0.1
		l0-0.1l0-0.2l0-0.2h0l0-0.1v-0.4c0,0,0,0,0,0l0-0.1v-0.3c0-0.2,0-0.5,0-0.9l0-0.1c0,0,0-0.1,0-0.1c0,0,0,0,0,0l0-0.2v-0.1
		c0,0,0-0.1,0-0.1c0,0,0,0,0,0c0-0.1,0-0.3-0.1-0.8l0-0.1l-0.1-0.2l0-0.1c0,0,0,0,0,0c0,0,0-0.1,0-0.1c0-0.5-0.1-0.8-0.1-1
		c0,0,0-0.2,0.1-0.5l0-0.2c0,0,0,0,0,0l0-0.2c0-0.1,0-0.3,0-0.5c0-0.2-0.1-0.4-0.1-0.6v-0.2c0-0.2,0-0.3,0.1-0.4c0,0-0.1,0-0.1-0.1
		v-0.2c0,0,0,0,0,0c0,0,0,0,0,0l0-0.2v-1.3c0-0.1,0-0.3,0-0.5c0,0,0-0.1,0-0.1c0,0,0-0.1,0-0.1c0-0.1,0-0.2,0-0.3v-0.2
		c0-0.1,0-0.2,0-0.4c0,0,0,0,0,0l0-0.2v-0.5l0-0.2c0,0,0,0,0,0l-0.1-0.8l0-0.5c0-0.3,0-0.5,0-0.8h0l0-0.1v-0.2c0-0.1,0-0.1,0-0.1
		c0-0.3,0-0.5-0.1-0.6c0,0,0,0,0,0L22,22.6c0-0.1,0-0.3,0-0.4v-0.3l0-0.3h0c0,0,0-0.2-0.1-0.4h0l0-0.1v-1c0-0.6,0-0.9,0.1-0.9
		l1.8-0.1c0,0,0.1,0,0.1,0c0,0,0.1,0,0.1,0v0l0.1,0h0.2c0.5,0,1.1-0.1,1.9-0.3c0.2,0.2,0.2,0.4,0.3,0.7c0,0,0,0,0,0
		c0.1,0.9,0.2,1.7,0.4,2.5c0.1,0.7,0.3,1.6,0.5,2.7c0.1,0.5,0.3,1.5,0.7,2.7c0.1,0.1,0.2,0.6,0.4,1.7h0.1c0-0.4,0.1-0.7,0.1-0.7
		c0,0,0,0,0,0c0.1-1.1,0.1-1.9,0.2-2.5c0,0,0,0,0-0.1c0,0,0-0.2,0-0.4c0-0.2,0-0.3,0-0.5c0,0,0-0.1,0-0.1l0-0.2v-0.4
		c0-0.1,0-0.2,0-0.3c0-0.1,0.1-0.3,0.1-0.7V23l0-0.2h0c0,0,0-0.1,0-0.1l0-0.4l0-0.1c0,0,0-0.1,0-0.1c0-0.1,0-0.1-0.1-0.1l0-0.2v-0.5
		c0-0.1,0-0.2,0-0.3c0-0.1,0-0.2,0-0.2c0-0.2,0-0.3-0.1-0.3c0,0,0,0,0,0l0-0.4v-0.2l0-0.2h0c0-0.2-0.1-0.5-0.1-0.7l0-0.2v-0.2
		c0-0.1,0-0.2,0-0.3l0-0.2c0-0.1,0-0.3,0-0.6c0-0.1,0-0.3,0-0.6c0-0.3,0-0.6,0-1l0-0.2c0,0,0,0,0,0L28.5,15l0.1,0h0.9
		c0.7,0,1.3-0.1,1.9-0.2c0.2,0,0.5,0,0.9,0c0,0,0.2-0.1,0.6-0.1L33.7,14.4z"/>
	<path class="st4" d="M37.3,13.8c0.8,0.2,1.3,0.4,1.6,0.6c0.2,0,0.6,0.2,1.2,0.5l0.7,0.3l0.5,0.3c0.2,0,0.5,0.3,1,0.8
		c0.2,0.2,0.4,0.5,0.7,0.9c0.5,0.8,0.7,1.4,0.7,1.7c0.1,0.1,0.1,0.3,0.2,0.6h0c0.1,0.2,0.2,0.7,0.3,1.4c0,0,0,0.1,0.1,0.2l0,0.1
		c0,0,0,0.1,0,0.2c0,0,0,0,0,0c0.1,0.5,0.1,0.7,0.2,0.7l0,0.1l0,0.2h0c0,0,0,0,0,0l0,0.2l0,0.3l0,0.1c0,0.1,0,0.1,0.1,0.1l0,0.2
		c0,0.1,0,0.2,0.1,0.3c0,0,0,0.1-0.1,0.3c0,0,0,0.2,0.1,0.7c0,0.5,0.1,1.6,0,3.3c0,0.4,0,1,0,1.6c0,0.4,0,0.8,0,1.2h0l0,0.1
		c0,0.5,0,0.8,0,1.1l0,0.2c0,0.1,0,0.2,0.1,0.4c0,0,0,0.1,0,0.1c0,0,0,0,0,0l0,0.2c0,0.2,0,0.5,0.1,1c0,0,0,0,0,0l0,0.2v0.7
		c0,0.1,0,0.3,0,0.5c0,0.4-0.1,0.7-0.2,1l0,0.1c0,0.1-0.1,0.8-0.3,2c0,0.2-0.1,0.5-0.2,0.8c-0.2,0.8-0.4,1.5-0.6,1.9
		c-0.3,0.6-0.5,1.1-0.7,1.4c0,0.1-0.3,0.5-0.8,1c-0.1,0-0.3,0.1-0.6,0.4l-0.7,0.6c-0.1,0-0.4,0.2-1,0.5c-0.6,0.3-1.1,0.5-1.5,0.7
		c-0.2,0.1-0.5,0.2-1,0.3c0,0-0.3,0.1-0.8,0.2c0,0-0.1,0.1-0.2,0.1h-0.2l-1.1,0.2v0l-0.1,0l-0.3,0c0.1-1.1,0.1-2.1,0.2-3
		c0-1.3,0.1-2.7,0.3-4.1v-0.1c0,0,0-0.1,0-0.1c0-0.2,0-0.3,0.1-0.3c0,0,0-0.1,0-0.1c0-0.3,0.1-0.9,0.2-1.9l0-0.1
		c0-0.4,0.1-0.7,0.1-0.9c0-0.1,0-0.2-0.1-0.3c0,0,0.1,0,0.1,0v-0.2H35v0l0.1-0.1v-0.1L35,35.1c0-0.1,0.1-0.2,0.1-0.4c0,0,0,0,0,0
		l0-0.2v-0.3c0,0,0-0.1,0-0.1c0-0.1,0.1-0.2,0.1-0.3c0-0.3-0.1-0.4-0.1-0.4c0-0.3,0-0.5,0.1-0.6L35,32.1h0c0,0,0,0,0,0l0-0.2v-0.1
		c0,0,0-0.1,0-0.1l0-0.1c0-0.3,0-0.4-0.1-0.4c0,0,0-0.1,0-0.1c0,0,0-0.1,0-0.1c0-0.1,0.1-0.2,0.1-0.4v-0.8c0,0,0-0.1,0-0.1
		c0,0,0-0.1,0-0.1v-0.5c0,0,0,0,0,0c0,0,0,0,0,0l0-0.1c0-0.1,0-0.2-0.1-0.3l0-0.1l0-0.2l0-0.2c0,0,0-0.1,0-0.1l0-0.1
		c0,0,0-0.1,0-0.1c0,0,0,0,0,0l0-0.1c0-1.2,0-1.9-0.1-2c0-0.2,0-0.4,0.1-0.4c0-0.2,0-0.3-0.1-0.3l0.1-0.6c0,0,0-0.1,0-0.1
		c0,0,0-0.1,0-0.1c0-0.2-0.1-0.5-0.1-0.8v-0.1c0-0.1,0-0.2,0-0.4c0,0,0,0,0,0l0-0.2v-0.8c0,0,0-0.1-0.1-0.3v-0.4c0,0,0-0.1,0-0.1
		c0,0,0,0,0,0l0-0.2c0-0.2,0-0.4,0-0.6c0-0.3,0-0.5-0.1-0.5c0,0,0-0.1,0-0.1v-0.1c0-0.1,0-0.1,0-0.1l0-0.2v-0.1c0-0.1,0-0.3-0.1-0.5
		c0,0,0,0,0,0l0-0.2V18l0-0.1c0,0-0.1,0-0.1-0.1v-0.2c0-0.3,0-0.4-0.1-0.5c0,0,0,0,0,0c-0.1-1.3-0.3-2.5-0.5-3.7
		C35.5,13.5,36.5,13.6,37.3,13.8z M39.3,24.8l0,0.2v0.3c0.1,0.9,0.1,1.3,0.1,1.4V27c0,0.2,0,0.4,0,0.7c0,0.1,0,0.2,0,0.3h0l0,0.1
		v0.6c0,0.3,0,0.6,0.1,0.7c0,0,0,0,0,0c0,0.2,0.1,0.4,0.1,0.5c0,0.1,0,0.1,0,0.2l0.1,0.7h0l0,0.1c0,0,0,0.1,0,0.1c0,0,0,0,0,0l0,0.2
		v0.3c0,0.1,0,0.2,0,0.4c0,0,0,0.1,0,0.1l0,0.1c0,0,0,0.1,0,0.1c0,0,0,0.1,0,0.1c0,0,0,0.2,0.1,0.4c0,1.2-0.1,2.3-0.2,3l0,0.2l0,0.2
		l0,0.2c0,0.1,0,0.3,0,0.4v0c0.2,0,0.7-0.4,1.4-1.2c0.2-0.4,0.3-0.7,0.3-0.9c0-0.5,0.1-0.9,0.1-1.1c0,0,0,0,0,0c0-0.3,0-0.4,0-0.6
		v-0.3l0-0.2l0-0.1c0-0.2,0-0.4,0.1-0.4c0,0,0,0,0,0c0-0.2,0.1-0.5,0.1-1v-0.4c0,0,0,0,0,0l0-0.1c0,0,0,0,0,0l0-0.2v-0.2
		c0-0.1,0-0.1,0-0.1l0-0.2v-0.3c0-0.3,0-0.6-0.1-0.8l0-0.1c-0.1-1-0.3-1.8-0.5-2.2C40.6,26.1,40.2,25.5,39.3,24.8L39.3,24.8z"/>
	<path class="st5" d="M56.6,14.9h0.1c0,0,0.1,0,0.1,0.1c0,0.2-0.1,0.4-0.2,0.5v0h0.1c-0.2,0.4-0.2,0.8-0.2,1.3c0,0,0,0.2-0.1,0.6
		l0,0.1c0,0.3-0.1,0.7-0.1,1.2l0,0.1c0,0-0.1,0.4-0.1,1.1l0,0.1c0,0.4-0.1,0.6-0.1,0.6l0,0.1c0,0.1-0.1,0.2-0.1,0.2
		c0,0.2,0,0.3,0.1,0.3c0,0,0,0.1,0,0.1c0,0,0,0.1,0,0.2l-0.1,0.2c0,0.2,0.1,0.4,0.1,0.5c0,0.5,0,1-0.1,1.2v0.9c0,0-0.1,0.1-0.2,0.1
		c-0.4-0.1-0.7-0.1-0.8-0.1h-0.4l-1-0.1c-0.1,0-0.3,0-0.6,0c-0.2,0-0.4-0.1-0.5-0.1c-0.1,0-0.2,0.1-0.3,0.1h-0.2c-0.2,0-0.4,0-0.6,0
		c-0.1,0-0.2,0-0.2,0c0,0-0.1,0-0.1,0c0,0-0.1,0-0.1,0v0c-0.1,0-0.3,0.1-0.5,0.1l-0.1,0c-0.5,0-0.7,0.1-0.7,0.3c0,0,0,0,0,0
		c0,0.4-0.1,0.6-0.1,0.9l0,0.1c0,0.4-0.1,0.8-0.1,1.3c0,0,0,0,0,0c0,0,0,0.1,0,0.1c0,0.2,0,0.6,0,1.1l0,0.1c0,0.3,0.1,0.4,0.3,0.4
		l0.1,0c0.2,0.1,0.6,0.2,1.2,0.2c0.6,0,1.1-0.1,1.5-0.1h0.1c0,0,0.1,0,0.1,0c0.1,0,0.3-0.1,0.5-0.1h0.2l0.2,0c0,0,0.1,0,0.2,0h0.1v0
		c0,0.1-0.1,0.3-0.2,0.8c-0.1,0.1-0.1,0.4-0.2,0.8c0,0-0.1,0.2-0.1,0.6v1.9l0,0.4c0,0-0.1,0-0.1,0c-0.1-0.1-0.4-0.1-0.9-0.2
		c0,0-0.1,0-0.2,0v0c0,0-0.1,0-0.1,0s0,0,0,0l-0.1,0l-0.5,0c-0.7,0-1.1,0.1-1.1,0.3c0,0.3-0.1,0.5-0.1,0.7l0,0.1c0,0,0,0,0,0
		c0,0,0,0,0,0l0,0.3v0.1l0,0.2h0l0,0.1c0,0.2-0.1,0.3-0.1,0.5v0.2c0,0,0,0.1,0,0.1c0,0,0,0.2-0.1,0.7c0,0.2,0,0.5,0,0.7h0l0,0.1V37
		l0,0.3h0l0,0.1c0,0,0,0,0,0c0,0.2,0.1,0.3,0.2,0.3l0.4,0l0.1,0c0.2,0,0.2,0,0.2-0.1l0.1,0c0.8-0.1,1.3-0.2,1.5-0.3v0l0.1,0
		c0,0,0.1,0,0.1,0c0.3,0,0.6-0.1,0.7-0.1v0l0.1,0h0.5c0.2-0.1,0.4-0.1,0.4-0.1c0.2,0,0.4,0,0.6,0l0,0.1c0,0.4-0.1,0.9-0.3,1.6
		c0,0,0,0,0,0c0,0.2-0.1,0.5-0.1,1c0,0,0,0.1,0,0.1c0,0,0,0.1,0,0.3c0,0.2,0,0.4,0.1,0.7c0,0.1,0,0.2,0,0.3c0.1,0.7,0.1,1.1,0.1,1.4
		l0,0.1l0.1,0.1l0,0.3l0.2,1c0,0,0,0.1,0,0.1c0,0.3,0.1,0.5,0.1,0.8h0c0,0.1,0.1,0.3,0.1,0.7l-0.1,0.1h0c0,0,0,0,0,0l-0.1,0h-0.1
		c0,0-0.1,0-0.1,0c0,0-0.1,0-0.1,0L54,45.6l-0.1,0c0,0-0.4-0.1-1.1-0.1l-0.1,0l-0.1-0.1c0,0,0,0,0,0l-0.2,0h-0.5c-0.1,0-0.2,0-0.3,0
		c-0.3,0-0.5,0-0.6,0.1l-0.2,0h-0.1c-0.3,0-0.6,0-0.9,0l-0.2,0c0,0-0.1,0-0.1,0c0,0-0.1,0-0.1,0v0l-0.1,0h-0.3c0,0,0,0,0,0
		c-0.1,0-0.1,0.1-0.2,0.1h-0.4c-0.1,0-0.2,0-0.3,0l-0.1,0l-0.2,0c0,0-0.1,0-0.1,0c0,0-0.1,0-0.1,0l-0.6,0.1l-0.2,0
		c-0.1,0-0.2,0.1-0.2,0.1v0l-0.1,0h-0.5l-0.3,0v0l-0.1,0h-0.6l-0.1,0c0.1-0.2,0.1-0.4,0.1-0.6v-0.3l0.1-0.1v-0.3
		c0.1-0.2,0.1-0.7,0.1-1.5c0,0,0-0.1,0.1-0.2l0-0.1c0,0,0-0.1,0-0.1l0-0.1c0-0.1,0.1-0.3,0.1-0.8l0-0.1c0-0.1,0.1-0.3,0.1-0.7
		c0,0,0-0.1,0-0.1h0c0,0,0,0,0,0c0-0.5,0.1-0.7,0.1-0.7l0-0.1c0,0,0-0.1,0-0.1c0,0,0,0,0,0c0-0.3,0.1-0.5,0.1-0.7l0-0.1
		c0.1-0.6,0.1-1.1,0.1-1.5c0,0,0-0.1,0-0.1c0,0,0-0.1,0-0.1s0,0,0,0l0.1-0.8l0-0.2v-0.4c0,0,0,0,0,0c0,0,0-0.1,0-0.1
		c0-0.2,0-0.3,0.1-0.4c0-0.2,0-0.3,0-0.5c0-0.4,0-0.9,0-1.5l0-0.1c0-0.1-0.1-0.4-0.1-0.8h0l0-0.1l0-0.1c0,0,0,0,0,0l0-0.2v-0.6
		c0,0,0,0,0,0l0-0.1c0-0.9,0-1.3,0.1-1.4L46,29.8c0-0.4,0.1-0.7,0.1-0.8c0,0,0-0.1,0-0.2c0,0,0-0.1,0-0.1c0-0.2,0-0.8-0.1-1.6l0-0.2
		c0-0.1,0-0.2,0-0.3c0,0,0,0,0,0l0-0.2V26c0-0.1,0-0.2,0-0.3c0-0.1,0-0.3,0.1-0.7c0-0.5,0-0.9,0-1.3l0-0.1c0-0.1,0-0.2,0.1-0.2
		l0-0.2v-0.4c0,0,0-0.1,0-0.1l0-0.1c0,0,0,0,0,0c0-0.2,0-0.3,0.1-0.3c0,0,0-0.1,0-0.1s0-0.1,0-0.1l-0.1-0.9l0-0.1
		c0-0.3-0.1-0.6-0.1-0.8h0l0-0.1v-0.5c0,0,0,0,0,0l-0.1-0.6c0,0,0-0.2,0-0.5c0-0.6,0-0.9-0.1-0.9l0-0.2v-0.2l0-0.1
		c0,0-0.1,0-0.1-0.1l0-0.2v-0.7l-0.1-0.1c0,0,0,0,0,0l0-0.1c0-0.4,0.1-0.5,0.1-0.5c0.4,0,0.6,0,0.7,0c1.3-0.1,2-0.1,2-0.1l0.6,0.1
		l1.8-0.2v0c0.1,0,0.5-0.1,1.1-0.2l0.2,0l1.3-0.2l0.1,0l0.2,0v0L54,15l0.1,0C55.2,15,56,14.9,56.6,14.9z"/>
	<path class="st6" d="M63,14.4L63,14.4L63,14.4l0.1,0c0,0,0.1,0,0.1,0c0.5,0,0.9,0.1,1,0.1l0.1,0c0.4,0,0.8,0,0.9,0l0.1,0l0.1,0
		c1.3,0.1,1.9,0.2,1.9,0.3l0.1,0h0.1c0.1,0.1,0.4,0.1,0.9,0.2c0.4,0.2,0.8,0.3,1.2,0.4c0,0,0.3,0.1,0.8,0.4c0.5,0.3,0.9,0.5,1.1,0.9
		c0.3,0.6,0.5,1.4,0.5,2.5c0,1.2-0.1,2.1-0.1,2.4c-0.3,1.4-0.5,2.2-0.7,2.4c-0.2,0.7-0.3,1.1-0.4,1.1l0,0.1c-0.2,0.5-0.5,1-0.7,1.5
		c-0.1,0-0.1,0.2-0.2,0.4c-0.5,0.7-1,1.3-1.4,1.7c-0.3,0.3-0.7,0.6-1.4,1c-0.3,0.1-0.4,0.2-0.5,0.3c0.1,0.2,0.4,0.6,1,1.3
		c0,0.1,0.2,0.4,0.6,0.9c0.1,0.3,0.3,0.7,0.6,1.2c0.2,0.3,0.3,0.6,0.4,1.2c0.1,0.2,0.1,0.3,0.1,0.3l0,0.1l0.3,1.6c0,0,0,0.1,0,0.1
		c0.1,0.3,0.2,0.8,0.3,1.3h0c0,0,0.1,0.2,0.1,0.5h0l0.1,0.3c0,0,0,0.1,0,0.1l0.2,0.6c0,0,0,0,0,0l0,0.2l0,0.2c0,0,0.1,0,0.1,0.1v0.2
		c0,0.1,0,0.4,0.1,0.9c0,0,0,0,0,0c0.1,0.4,0.2,1.3,0.3,2.7c0,0,0,0,0,0l0,0.2v1.1c0,0.3,0,0.7,0,1.1c0,0.1,0,0.3,0,0.6
		c0,0.1-0.1,0.2-0.3,0.2c-0.1,0-0.3-0.1-0.6-0.1c0,0,0,0,0,0c0-0.1,0-0.1-0.1-0.1c-0.1,0-0.1,0.1-0.2,0.1h-0.5c0,0-0.1,0-0.1,0
		c0,0-0.1,0-0.1,0l-0.2,0c0,0-0.1,0-0.1,0c0,0,0-0.1-0.1-0.1c-0.1,0-0.1,0.1-0.2,0.1h-0.6l-0.1-0.1c-0.1,0-0.1,0.1-0.1,0.1
		c-0.1,0-0.2,0-0.3-0.1c-0.1,0.1-0.3,0.1-0.5,0.1c-0.3,0-0.4,0-0.5,0l0,0.1c-0.3,0-0.4,0-0.4-0.1l-0.1,0h-0.1
		c-0.3-0.1-0.4-0.2-0.4-0.3l0.4-2.5c0-0.1,0-0.2,0-0.2c0,0,0-0.1,0-0.1c0.1-1.7,0.2-2.7,0.2-3.2v0c0,0,0,0,0,0l0-0.1c0,0,0,0,0,0
		c0,0,0,0,0,0c0,0,0-0.1,0-0.1l0-0.3v-0.1c0,0,0-0.1,0-0.1c0,0,0,0,0,0l0.1-0.5c0-0.7-0.1-1.1-0.1-1.3c0,0,0,0,0,0
		c0-0.3-0.1-0.5-0.1-0.7l0-0.3c-0.2-1.8-0.4-2.7-0.5-2.7c-0.2-0.8-0.5-1.6-0.9-2.2c-0.1-0.3-0.5-0.7-0.9-1.2L63,30.6
		c-0.2,0-0.3,0.2-0.3,0.5c0,0.3,0,0.6-0.1,0.9c0,0.2,0,0.4,0,0.6v0c0,0,0,0.1,0,0.1c0,0,0,0.1,0,0.1c0,0.1,0,0.3,0,0.6l0,0.2
		c0,0,0,0.1,0,0.1c0,0.1,0,0.2,0,0.3c0,0,0,0,0,0c0,0.3,0,0.5,0.1,0.6c0,0,0,0.1,0,0.1l0,0.1c0,0,0,0,0,0c0,0,0,0.1,0,0.1
		c0,0.7,0,1.3,0,1.7v0.2c0,0,0,0,0,0l0,0.1v0.7c0,0.3,0,0.6,0.1,0.8c0,0,0,0.1,0,0.1c0.1,0.5,0.1,0.8,0.1,0.9h0l0,0.1
		c0.1,2.6,0.2,4,0.2,4.2l0,0.1c0,0,0,0,0,0c0,0.4,0.1,0.7,0.1,0.9c0,0.1-0.1,0.2-0.1,0.2h-0.5c0,0-0.1,0-0.1,0c0,0-0.1,0-0.1,0
		l-0.2,0l-0.1,0c0,0-0.1,0-0.1,0v0c0,0-0.3,0.1-0.7,0.1v0c-0.5,0.1-0.8,0.2-0.8,0.2l-0.1,0l-0.6,0.1c0,0,0,0,0,0
		c-0.7,0.2-1.2,0.3-1.4,0.4c0,0-0.1,0-0.1,0c0,0.1-0.2,0.1-0.5,0.2c0,0,0,0.1-0.1,0.1h-0.2c-0.1,0-0.1-0.2-0.1-0.7
		c0-0.1,0.1-0.1,0.1-0.2c0,0,0-0.1,0-0.1c0.1-0.2,0.1-0.9,0.2-2.1l0-0.1c0,0,0-0.2,0.1-0.6l0-0.1c0,0,0,0,0,0l0-0.2l0-0.2
		c0,0,0-0.1,0-0.1c0,0,0-0.1,0-0.1l0-0.1c0.1-0.4,0.1-1,0.2-2l0-0.1c0,0,0-0.1,0-0.1s0,0,0,0l0-0.2v-0.5c0,0,0,0,0,0c0,0,0,0,0,0
		c0-0.1,0-0.2,0-0.4c0-0.6,0-1-0.1-1.2c0-0.4,0.1-0.5,0.1-0.5l0-0.1v-0.4c0-0.1,0-0.3,0-0.5c0-0.2,0-0.3-0.1-0.4
		c0-0.3,0-0.5,0.1-0.5l0-0.2c0-0.2,0-0.5,0-0.9c0-0.2,0-0.2,0-0.3c0-0.1,0-0.3,0-0.5h0c0,0,0,0,0,0l0-0.2v-0.2c0,0,0-0.1,0-0.1
		c0-0.1,0.1-0.2,0.1-0.2c0,0,0,0,0,0c0,0,0-0.1,0-0.1c0-0.1,0-0.1,0-0.3c0-0.3,0-0.6,0-0.9h0l0-0.1v-0.3l0-0.2c0,0,0-0.1,0-0.1
		c0,0,0,0,0,0c0,0,0-0.1,0-0.1c0-0.4-0.1-0.9-0.1-1.4V28c0,0,0,0,0,0l0-0.1c0-0.1,0-0.1,0-0.1l0-0.2c0-0.1,0-0.1,0-0.2l-0.1-0.6
		c0-0.1,0-0.3,0-0.4v-0.2c0,0,0,0,0,0l0-0.1v-0.6c0,0,0-0.1,0-0.1l0-0.1c0-0.2,0-0.5,0-0.6v-0.2c0,0,0,0,0,0l0-0.1v-0.1c0,0,0,0,0,0
		l0-0.1l0-0.1c0,0,0-0.1-0.1-0.2h0l0.1,0c0-0.2,0-0.3,0.1-0.3l0-0.1v-0.1c0-0.4,0-0.7,0.1-0.8l0-0.1c0-0.3,0-0.5,0.1-0.5
		c0-0.1-0.1-0.3-0.1-0.7v-0.1c0-0.1,0-0.2,0-0.3c-0.1-0.6-0.1-1.7-0.2-3.2c0,0,0-0.1,0-0.1c0,0,0-0.1,0-0.1c0,0,0,0,0,0
		c-0.1-0.9-0.1-1.4-0.1-1.5c0-0.1,0-0.2,0-0.3c0-0.1,0-0.2-0.1-0.4c0-0.3,0.1-0.4,0.4-0.4c0-0.1,0.4-0.2,1.2-0.3c0,0,0-0.1,0.1-0.1
		c0.1,0,0.1,0,0.1,0.1c0.5-0.1,1.4-0.2,2.5-0.3c0,0,0.1,0,0.3-0.1v0C62.3,14.4,62.5,14.4,63,14.4z M62.8,21.6L62.8,21.6
		c0,0.2,0,0.2,0,0.2c0,0.7-0.1,1.2-0.1,1.3l0,0.1c0,0.2-0.1,0.6-0.1,1.3l0,0.1c0,0,0,0,0,0l0,0.1c0,0.3,0,0.5,0,0.7l0,0
		c0,0,0,0.1,0,0.1c0,0.1,0,0.1,0,0.1c0,0.1,0,0.2,0,0.3l0,0.5c0,0.1,0,0.2,0,0.4c0,0,0,0.1,0,0.1h0c0,0,0,0,0,0l0,0.3
		c0,0,0,0.1,0,0.1l0,0c0,0.1,0,0.1,0.1,0.1l0,0.1v0l0,0.1c0,0,0,0.1,0,0.1c0,0,0,0,0,0l0,0.1v0c0,0.1,0.1,0.1,0.2,0.1
		c1.6-0.5,2.7-1.4,3.4-2.7c0.5-0.9,0.8-1.4,0.8-1.7l0-0.1c0.1,0,0.1-0.1,0.1-0.2v0l0-0.2c0,0,0,0,0,0l0-0.2l0-0.3l0-0.1h0
		c0,0,0-0.1,0-0.1c0-0.5-0.2-1-0.6-1.5c-0.3-0.3-0.7-0.4-1-0.5c-0.1-0.1-0.4-0.2-1.1-0.3c0,0-0.1,0-0.1,0c0,0-0.1,0-0.1,0
		c-0.3-0.1-0.7-0.1-1.2-0.1v0c-0.2,0-0.2,0.2-0.2,0.5C63,21.1,62.9,21.3,62.8,21.6z"/>
	<path class="st3" d="M76.7,15.1L76.7,15.1L76.7,15.1C76.8,15.1,76.8,15.1,76.7,15.1h0.2h0.5c0,0,0,0,0,0l0.1,0c0,0,0,0,0,0
		c0,0,0.1,0,0.1,0c0.7,0,1.4,0.1,2,0.4c0.7,0.3,1.3,0.6,1.7,1c0.5,0.3,0.9,0.9,1.3,1.6c0.2,0.5,0.3,1.4,0.3,2.6c0,0.1,0,0.4,0,0.9
		l0,0.1c0,0,0.1,0.2,0.1,0.6h0l0,0.1c0,0.6,0,0.9,0.1,0.9l0,0.1c0,0.4,0.1,0.7,0.1,0.9c0,0,0,0,0,0l0,0.2v2.3c0,0,0,0.1,0,0.1
		c0,0,0,0.1,0,0.1l0,0.1c0,0,0,0.1,0,0.1l0,0.2l0,0.1l0,0.1l0,0.1l0,0.1l0,0.1l0,0.1c0,0,0,0,0,0l0,0.2V28l0,0.2h0c0,0,0,0,0,0
		l0,0.2V29l0,0.2c0,0,0,0.1,0,0.1c0,0.2,0,0.3,0,0.3c0,0,0,0,0,0l0,0.2V30c0,0.6,0,1-0.1,1.2v0.4c0,0.2,0,0.3-0.1,0.3l0,0.1
		c0,0.5,0,0.8,0,1.1l-0.1,0.7l0,0.2c-0.1,0.5-0.2,0.9-0.3,1.2c0,0,0,0,0,0c0,0.2-0.2,0.8-0.7,1.6c-0.5,0.7-1,1.1-1.5,1.4
		c-0.1,0.1-0.7,0.3-1.7,0.5c-0.1,0-0.3,0-0.7,0l-0.1,0c0,0-0.1,0-0.1,0v0l-0.1,0h0c0,0,0,0,0,0l-0.1,0c-0.4,0-0.6-0.1-0.6-0.1
		c-0.1,0-0.1,0-0.1,0.1c-0.2,0-0.4,0-0.5-0.1l-0.1,0.1l-1-0.2c-0.6-0.2-1.1-0.6-1.3-1c-0.6-0.6-0.9-1.3-1.1-2.2
		c-0.2-0.6-0.3-1.4-0.4-2.3h0l-0.1-1.1c-0.1-1.8-0.2-3.7-0.1-5.8c0.1-1.6,0.1-2.5,0.1-2.6l0.1-0.3c0,0,0-0.1,0-0.2
		c0-0.7,0.1-1.1,0.1-1.1c0-0.1,0-0.2,0-0.3c0-0.3,0.1-0.6,0.1-1.1l0-0.1l0.2-0.9v-0.2c0-0.4,0.1-0.6,0.2-0.6l0-0.1
		c0-0.3,0.1-0.8,0.4-1.4c0,0,0-0.1,0-0.1c0,0,0.1,0,0.1-0.1l0-0.1c0.1-0.2,0.4-0.7,1.1-1.3C75.1,15.3,75.9,15.1,76.7,15.1z
		 M76.9,21.6C76.9,21.6,76.9,21.6,76.9,21.6v0.2v0.1c0,1-0.1,1.8-0.1,2.4c0,0,0,0.1,0,0.1h0l0,0.1v1.2c0,0,0,0.1,0,0.1
		c0,0,0,0.1,0,0.1c0,0,0,0.1,0,0.2h0c0,0,0,0.1,0,0.1c0,0.1,0,0.3-0.1,0.6c0,0.1,0,0.2,0,0.2h0l0,0.1c0,0.1,0,0.3,0,0.5c0,0,0,0,0,0
		c0,0,0,0.1,0,0.1c0,0.8,0.1,1.2,0.1,1.3h0c0,0,0,0,0,0l0,0.2v0.3c0,0.1,0,0.1,0.1,0.2c0,0,0,0.1,0,0.1c0,2.8,0.2,4.5,0.6,5.2
		c0.2,0.3,0.3,0.4,0.6,0.4c0.4,0,0.7-0.6,1.1-1.9c0-0.3,0-0.5,0.1-0.7c0,0,0,0,0,0c0-0.2,0.1-0.5,0.1-0.9c0-0.2,0-0.4,0-0.6
		c0-0.1,0-0.4,0-0.7v-0.1l0-0.2c0,0,0-0.1,0-0.2c0,0,0-0.1,0-0.2c0,0,0,0,0,0l0-0.2c0-0.4,0-0.6,0.1-0.6c0,0,0,0,0,0l0-0.3
		c0-0.7,0-1.1-0.1-1.1l0-0.2v-0.1c0-0.5,0-0.8,0.1-0.8l0-0.1v0c0,0,0,0,0,0l-0.1-0.5l0-0.2v-0.6l0-0.3c0,0,0,0,0,0
		c0,0-0.1,0-0.1-0.1c0,0,0-0.1,0.1-0.1c0-0.1-0.1-0.2-0.1-0.3c0,0,0,0,0,0c0,0,0-0.1,0-0.1c0,0,0-0.1,0-0.1c-0.1-0.6-0.1-1-0.1-1.1
		h0l0-0.1v-0.2h-0.1l0-0.2v-0.1l0-0.2h0c-0.1-0.6-0.1-0.9-0.2-0.9c0,0,0-0.1,0-0.1c0,0-0.1-0.1-0.1-0.2l0.1,0
		c-0.2-1-0.4-1.7-0.6-2.2c-0.2-0.3-0.3-0.4-0.3-0.4h0c-0.2,0-0.4,0.5-0.7,1.4C77.1,19.9,77,20.6,76.9,21.6z"/>
</g>
</svg>
